<?xml version="1.0" standalone="no"?>
<!DOCTYPE svg PUBLIC "-//W3C//DTD SVG 20010904//EN"
 "http://www.w3.org/TR/2001/REC-SVG-20010904/DTD/svg10.dtd">
<svg version="1.0" xmlns="http://www.w3.org/2000/svg"
 width="512.000000pt" height="512.000000pt" viewBox="0 0 512.000000 512.000000"
 preserveAspectRatio="xMidYMid meet">
<metadata>
Created by potrace 1.11, written by Peter Selinger 2001-2013
</metadata>
<g transform="translate(0.000000,512.000000) scale(0.100000,-0.100000)"
fill="#000000" stroke="none">
<path d="M1659 5035 c-385 -80 -695 -364 -803 -738 -34 -116 -47 -230 -39
-338 l6 -89 -67 0 c-36 0 -66 -2 -66 -5 0 -3 25 -61 56 -128 201 -437 364
-847 439 -1103 78 -265 132 -769 151 -1411 l7 -233 -197 -328 -196 -327 0
-138 0 -137 918 0 c504 0 910 4 902 9 -8 5 -40 14 -70 21 -365 84 -716 362
-900 713 -108 205 -150 369 -157 625 l-5 182 226 0 226 0 0 -155 0 -155 -61 0
-61 0 7 -47 c41 -277 258 -587 517 -739 64 -37 228 -107 235 -100 2 2 -71 127
-162 279 l-165 275 0 89 c0 203 29 447 107 900 l6 33 -369 2 -369 3 -3 378
c-1 207 1 377 5 377 4 0 72 -64 150 -142 l142 -141 56 51 c125 114 347 237
520 287 49 14 93 29 96 33 4 4 25 63 47 132 151 469 245 872 254 1090 l3 75
-71 0 -72 0 -6 52 c-3 28 -20 93 -36 144 -111 339 -385 598 -730 689 -107 29
-366 37 -471 15z"/>
<path d="M2870 2813 c-298 -47 -540 -161 -755 -356 l-50 -46 -122 122 -123
122 0 -313 0 -312 312 0 313 0 -105 106 -105 105 64 61 c147 139 370 243 584
274 l47 6 0 -66 0 -66 115 0 115 0 0 66 0 66 48 -6 c100 -15 241 -59 337 -106
227 -112 417 -305 525 -532 44 -93 84 -224 95 -311 l7 -57 -66 0 -66 0 0 -115
0 -115 66 0 66 0 -7 -57 c-17 -136 -92 -331 -173 -449 -122 -180 -312 -340
-488 -414 -87 -36 -222 -75 -291 -85 l-53 -7 0 66 0 66 -115 0 -115 0 0 -65
c0 -36 -4 -65 -9 -65 -29 0 -179 34 -237 54 -254 86 -470 262 -614 499 -68
113 -124 273 -144 410 l-7 47 65 0 66 0 0 115 0 115 -186 0 -187 0 6 -157 c3
-87 13 -192 22 -233 90 -410 349 -752 714 -939 468 -241 1031 -195 1446 118
288 217 479 537 535 896 15 91 14 310 0 405 -71 467 -387 873 -821 1056 -176
74 -335 105 -539 103 -80 -1 -156 -4 -170 -6z"/>
<path d="M2522 2413 c-46 -27 -117 -75 -158 -107 l-75 -59 112 -113 c62 -62
115 -112 116 -110 3 3 55 216 100 414 3 12 1 22 -4 22 -5 0 -46 -21 -91 -47z"/>
<path d="M2930 1772 l0 -318 -121 -209 c-66 -116 -125 -217 -129 -226 -8 -13
7 -28 76 -73 47 -32 88 -56 90 -53 2 2 74 128 159 281 l155 278 0 319 0 319
-115 0 -115 0 0 -318z"/>
</g>
</svg>
