<?xml version="1.0" standalone="no"?>
<!-- Generator: Gravit.io -->
<svg xmlns="http://www.w3.org/2000/svg" xmlns:xlink="http://www.w3.org/1999/xlink" style="isolation:isolate" viewBox="-11 -10 1222 230.612"
    width="1222" height="230.612">
    <g id="Button" filter="url(#3dylUF5Un9wBqqrTJS4tykog5L3ByTSv)">
        <defs>
            <filter id="kNBTIJjpzmA38fNRZdMcE3Mih2mDDIvH" x="-200%" y="-200%" width="400%" height="400%">
                <feOffset xmlns="http://www.w3.org/2000/svg" in="SourceAlpha" result="offOut" dx="0" dy="1" />
                <feGaussianBlur xmlns="http://www.w3.org/2000/svg" in="offOut" result="blurOut" stdDeviation="2.5" />
                <feComponentTransfer xmlns="http://www.w3.org/2000/svg" in="blurOut" result="opacOut">
                    <feFuncA xmlns="http://www.w3.org/2000/svg" type="table" tableValues="0 0.5" />
                </feComponentTransfer>
                <feBlend xmlns="http://www.w3.org/2000/svg" in="SourceGraphic" in2="opacOut" mode="normal" />
            </filter>
        </defs>
        <g filter="url(#kNBTIJjpzmA38fNRZdMcE3Mih2mDDIvH)">
            <linearGradient id="_lgradient_0" x1="33.69178706102254%" y1="-16.624692903298836%" x2="45.34503436499094%" y2="149.45430993874697%">
                <stop offset="0%" stop-opacity="1" style="stop-color:rgb(248,245,199)" />
                <stop offset="97.82608695652173%" stop-opacity="1" style="stop-color:rgb(182,155,115)" />
            </linearGradient>
            <path d=" M 1095.89 208.38 Q 1134.18 210.81 1144.51 187.77 C 1152.44 175.85 1164.25 152.13 1172.49 141.46 Q 1181.86 129.33 1200 110.31 Q 1178.37 90.99 1169.94 76 C 1157.94 54.67 1147.34 26.44 1142.19 18.14 Q 1130.3 -2.55 1100.71 0.36 L 99.29 0.36 Q 69.7 -2.55 57.81 18.14 C 52.66 26.44 42.06 54.67 30.06 76 Q 21.63 90.99 0 110.31 Q 18.14 129.33 27.51 141.46 C 35.75 152.13 47.56 175.85 55.49 187.77 Q 65.82 210.81 104.11 208.38 L 1095.89 208.38 Z "
                fill="url(#_lgradient_0)" />
        </g>
        <linearGradient id="_lgradient_1" x1="-4.390245757758116%" y1="52.706606885852814%" x2="103.80631906735726%" y2="52.706606885852814%">
            <stop offset="2.608695652173913%" stop-opacity="1" style="stop-color:rgb(200,28,34)" />
            <stop offset="49.130434782608695%" stop-opacity="1" style="stop-color:rgb(200,28,34)" />
            <stop offset="97.3913043478261%" stop-opacity="1" style="stop-color:rgb(200,28,34)" />
        </linearGradient>
        <path d=" M 1074.45 192.31 L 1079.4 192.46 L 1089.58 191.87 L 1099.47 189.55 L 1099.47 189.55 C 1099.62 189.55 1099.62 189.55 1099.76 189.55 C 1103.4 188.09 1106.6 185.91 1109.51 183.44 C 1112.27 180.82 1114.31 177.76 1115.76 174.42 L 1125.66 158.12 L 1125.66 157.98 C 1129.73 150.27 1134.24 143 1139.19 135.87 L 1147.48 125.98 L 1162.75 109.39 L 1145.29 91.79 L 1137 80.15 L 1121.87 48.44 L 1113.87 31.57 L 1107.91 24.15 L 1100.49 19.2 L 1091.33 16.58 L 1083.76 16.15 L 1078.52 16.44 L 121.48 16.44 L 116.24 16.15 L 108.67 16.58 L 99.51 19.2 L 92.09 24.15 L 86.13 31.57 L 77.98 48.44 L 63 80.01 L 54.71 91.79 L 37.25 109.39 L 52.52 125.98 L 60.81 135.87 C 65.76 143 70.27 150.27 74.34 157.98 L 74.34 158.12 L 84.24 174.42 C 85.69 177.76 87.73 180.82 90.49 183.44 C 93.4 185.91 96.6 188.09 100.24 189.55 C 100.38 189.55 100.38 189.55 100.53 189.55 L 100.53 189.55 L 110.42 191.87 L 120.6 192.46 L 125.55 192.31 L 1074.45 192.31 Z "
            fill="url(#_lgradient_1)" />
        <g transform="matrix(2.98,0,0,2.98,393.75,41.97)">
            <text transform="matrix(1,0,0,1,28.79,26.12)" style="font-family:Dusha;font-weight:400;font-size:20px;font-style:normal;fill:#d9cba0;stroke:none;">KOREA REPUBLIC</text>
        </g>
        <path d=" M 1113.59 104.31 C 1113.59 101.2 1116.11 98.68 1119.21 98.68 C 1122.32 98.68 1124.84 101.2 1124.84 104.31 C 1124.84 107.41 1122.32 109.93 1119.21 109.93 C 1116.11 109.93 1113.59 107.41 1113.59 104.31 Z "
            fill="rgb(192,175,134)" />
        <path d=" M 75.18 104.31 C 75.18 101.2 77.7 98.68 80.8 98.68 C 83.91 98.68 86.43 101.2 86.43 104.31 C 86.43 107.41 83.91 109.93 80.8 109.93 C 77.7 109.93 75.18 107.41 75.18 104.31 Z "
            fill="rgb(192,175,134)" />
        <rect x="161.635" y="16.146" width="191.365" height="176.31" transform="matrix(1,0,0,1,0,0)" fill="rgb(235,235,235)"
        />
    </g>
    <defs>
        <filter id="3dylUF5Un9wBqqrTJS4tykog5L3ByTSv" x="-200%" y="-200%" width="400%" height="400%">
            <feOffset xmlns="http://www.w3.org/2000/svg" in="SourceAlpha" result="offOut" dx="0" dy="1" />
            <feGaussianBlur xmlns="http://www.w3.org/2000/svg" in="offOut" result="blurOut" stdDeviation="2.5" />
            <feComponentTransfer xmlns="http://www.w3.org/2000/svg" in="blurOut" result="opacOut">
                <feFuncA xmlns="http://www.w3.org/2000/svg" type="table" tableValues="0 0.5" />
            </feComponentTransfer>
            <feBlend xmlns="http://www.w3.org/2000/svg" in="SourceGraphic" in2="opacOut" mode="normal" />
        </filter>
    </defs>
</svg>