<?xml version="1.0" standalone="no"?><!-- Generator: Gravit.io -->
<svg xmlns="http://www.w3.org/2000/svg" xmlns:xlink="http://www.w3.org/1999/xlink" style="isolation:isolate" viewBox="0 400 1276.952 221.989" width="1276.952" height="221.989">
    <g id="Button">
        <path d=" M 1166.167 621.744 Q 1206.914 624.324 1217.899 599.811 C 1226.341 587.122 1238.906 561.888 1247.677 550.536 Q 1257.653 537.627 1276.952 517.382 Q 1253.938 496.821 1244.969 480.877 C 1232.198 458.173 1220.918 428.136 1215.437 419.306 Q 1202.786 397.286 1171.299 400.382 L 105.653 400.382 Q 74.166 397.286 61.515 419.306 C 56.034 428.136 44.755 458.173 31.983 480.877 Q 23.014 496.821 0 517.382 Q 19.299 537.627 29.275 550.536 C 38.047 561.888 50.611 587.122 59.053 599.811 Q 70.038 624.324 110.785 621.744 L 1166.167 621.744 Z " fill="rgb(217,203,160)"/>
        <path d=" M 1143.352 604.643 L 1148.615 604.797 L 1159.451 604.178 L 1169.977 601.701 L 1169.977 601.701 C 1170.132 601.701 1170.132 601.701 1170.287 601.701 C 1174.157 600.153 1177.562 597.832 1180.658 595.2 C 1183.6 592.414 1185.767 589.163 1187.315 585.602 L 1197.841 568.265 L 1197.841 568.11 C 1202.175 559.906 1206.974 552.166 1212.237 544.581 L 1221.061 534.054 L 1237.315 516.407 L 1218.739 497.677 L 1209.915 485.293 L 1193.816 451.547 L 1185.302 433.59 L 1178.956 425.695 L 1171.061 420.432 L 1161.309 417.646 L 1153.259 417.181 L 1147.686 417.491 L 129.266 417.491 L 123.693 417.181 L 115.643 417.646 L 105.891 420.432 L 97.996 425.695 L 91.65 433.59 L 82.981 451.547 L 67.037 485.138 L 58.213 497.677 L 39.637 516.407 L 55.891 534.054 L 64.715 544.581 C 69.978 552.166 74.777 559.906 79.111 568.11 L 79.111 568.265 L 89.637 585.602 C 91.185 589.163 93.352 592.414 96.294 595.2 C 99.39 597.832 102.795 600.153 106.665 601.701 C 106.82 601.701 106.82 601.701 106.975 601.701 L 106.975 601.701 L 117.501 604.178 L 128.337 604.797 L 133.6 604.643 L 1143.352 604.643 Z " fill="rgb(200,28,34)"/>
        <g transform="matrix(3.176,0,0,3.176,419,444.665)">
            <text transform="matrix(1,0,0,1,36.733,25.531)" style="font-family:&quot;Dusha V5&quot;;font-weight:400;font-size:18px;font-style:normal;fill:#d9cba0;stroke:none;">KOREA REPUBLIC</text>
        </g>
        <path d=" M 1185 510.995 C 1185 507.691 1187.682 505.008 1190.986 505.008 C 1194.29 505.008 1196.973 507.691 1196.973 510.995 C 1196.973 514.299 1194.29 516.981 1190.986 516.981 C 1187.682 516.981 1185 514.299 1185 510.995 Z " fill="rgb(192,175,134)"/><path d=" M 80 510.995 C 80 507.691 82.682 505.008 85.986 505.008 C 89.29 505.008 91.973 507.691 91.973 510.995 C 91.973 514.299 89.29 516.981 85.986 516.981 C 82.682 516.981 80 514.299 80 510.995 Z " fill="rgb(192,175,134)"/>
        <rect x="172" y="417.989" width="204.9" height="187.015" transform="matrix(1,0,0,1,0,0)" fill="rgb(235,235,235)"/>
    </g>
</svg>