<?xml version="1.0" standalone="no"?><!-- Generator: Gravit.io --><svg xmlns="http://www.w3.org/2000/svg" xmlns:xlink="http://www.w3.org/1999/xlink" style="isolation:isolate" viewBox="64.499 31 1791.002 237.5" width="1791.002" height="237.5"><g id="Fancy Separator"><path d=" M 1111 149.75 C 1111 134.572 1123.322 122.25 1138.5 122.25 C 1153.678 122.25 1166 134.572 1166 149.75 C 1166 164.928 1153.678 177.25 1138.5 177.25 C 1123.322 177.25 1111 164.928 1111 149.75 Z " fill="rgb(192,175,134)"/><path d=" M 1198.251 149.75 C 1198.251 142.851 1203.852 137.25 1210.751 137.25 C 1217.649 137.25 1223.251 142.851 1223.251 149.75 C 1223.251 156.649 1217.649 162.25 1210.751 162.25 C 1203.852 162.25 1198.251 156.649 1198.251 149.75 Z " fill="rgb(192,175,134)"/><path d=" M 989.342 119.889 Q 965.546 95.618 960 31 Q 953.922 95.682 929.967 119.889 Q 905.891 144.218 841.251 150.445 Q 905.786 155.571 929.967 179.611 Q 954.148 203.651 960 268.5 Q 965.322 203.718 989.342 179.611 Q 1013.606 155.259 1078.749 150.445 Q 1013.499 144.528 989.342 119.889 Z " fill="rgb(192,175,134)"/><path d="M 1267.235 138.5 L 1843.767 138.5 C 1850.243 138.5 1855.501 143.541 1855.501 149.75 L 1855.501 149.75 C 1855.501 155.959 1850.243 161 1843.767 161 L 1267.235 161 C 1260.759 161 1255.501 155.959 1255.501 149.75 L 1255.501 149.75 C 1255.501 143.541 1260.759 138.5 1267.235 138.5 Z" style="stroke:none;fill:#C0AF86;stroke-miterlimit:10;"/><path d=" M 809 149.75 C 809 134.572 796.678 122.25 781.5 122.25 C 766.322 122.25 754 134.572 754 149.75 C 754 164.928 766.322 177.25 781.5 177.25 C 796.678 177.25 809 164.928 809 149.75 Z " fill="rgb(192,175,134)"/><path d=" M 721.749 149.75 C 721.749 142.851 716.148 137.25 709.249 137.25 C 702.351 137.25 696.749 142.851 696.749 149.75 C 696.749 156.649 702.351 162.25 709.249 162.25 C 716.148 162.25 721.749 156.649 721.749 149.75 Z " fill="rgb(192,175,134)"/><path d="M 652.765 138.5 L 76.233 138.5 C 69.757 138.5 64.499 143.541 64.499 149.75 L 64.499 149.75 C 64.499 155.959 69.757 161 76.233 161 L 652.765 161 C 659.241 161 664.499 155.959 664.499 149.75 L 664.499 149.75 C 664.499 143.541 659.241 138.5 652.765 138.5 Z" style="stroke:none;fill:#C0AF86;stroke-miterlimit:10;"/></g></svg>