<?xml version="1.0" standalone="no"?>
<!-- Generator: Gravit.io -->
<svg xmlns="http://www.w3.org/2000/svg" xmlns:xlink="http://www.w3.org/1999/xlink" style="isolation:isolate" viewBox="987 114 918 1212.514"
    width="918" height="1212.514">
    <g id="Fancy Banner">
        <linearGradient id="_lgradient_2" x1="53.17268528347729%" y1="-1.889573840793357%" x2="50.000000000000014%" y2="99.99999999999996%">
            <stop offset="0%" stop-opacity="1" style="stop-color:rgb(248,245,199)" />
            <stop offset="100%" stop-opacity="1" style="stop-color:rgb(182,155,113)" />
        </linearGradient>
        <path d=" M 1448.157 1326.514 Q 1479.843 1267.367 1604.474 1199.77 Q 1883.31 1096.263 1898.096 935.721 C 1950.906 487.894 1691.082 114 1448.157 114 C 1196.782 114 941.182 479.444 993.992 935.721 Q 1021.453 1096.263 1285.503 1197.658 C 1354.747 1224.248 1399.572 1263.142 1448.157 1326.514 Z "
            fill="url(#_lgradient_2)" />
        <linearGradient id="_lgradient_3" x1="52.85358424799802%" y1="-2.645733443444997%" x2="51.05557030991069%" y2="102.87289175362196%">
            <stop offset="0%" stop-opacity="1" style="stop-color:rgb(188,27,32)" />
            <stop offset="100%" stop-opacity="1" style="stop-color:rgb(109,14,18)" />
        </linearGradient>
        <path d=" M 1443.932 1280.041 Q 1479.843 1225.119 1591.799 1159.634 Q 1841.062 1062.464 1866.411 935.721 C 1938.232 506.905 1688.97 107.663 1443.932 133.012 C 1184.108 128.787 966.531 521.692 1019.341 923.046 Q 1048.915 1062.464 1291.84 1155.41 C 1348.645 1177.144 1416.471 1233.568 1443.932 1280.041 Z "
            fill="url(#_lgradient_3)" />
        <path d=" M 1455.257 1164.67 Q 1447.075 1156.374 1445.168 1134.286 Q 1443.079 1156.396 1434.842 1164.67 Q 1426.564 1172.987 1404.339 1175.115 Q 1426.528 1176.868 1434.842 1185.085 Q 1443.156 1193.303 1445.168 1215.47 Q 1446.998 1193.326 1455.257 1185.085 Q 1463.6 1176.761 1485.998 1175.115 Q 1463.563 1173.093 1455.257 1164.67 Z "
            fill="rgb(192,175,134)" />
        <g id="Fancy Separator">
            <line x1="1297.604" y1="663.222" x2="1401.112" y2="665.335" vector-effect="non-scaling-stroke" stroke-width="6.337"
                stroke="rgb(192,175,134)" stroke-linejoin="round" stroke-linecap="round" stroke-miterlimit="3" />
            <line x1="1490.888" y1="664.278" x2="1594.396" y2="664.278" vector-effect="non-scaling-stroke" stroke-width="6.337"
                stroke="rgb(192,175,134)" stroke-linejoin="round" stroke-linecap="round" stroke-miterlimit="3" />
            <g id="Group">
                <path d=" M 1420.123 664.278 C 1420.123 663.112 1421.07 662.166 1422.236 662.166 C 1423.401 662.166 1424.348 663.112 1424.348 664.278 C 1424.348 665.444 1423.401 666.391 1422.236 666.391 C 1421.07 666.391 1420.123 665.444 1420.123 664.278 Z "
                    fill="rgb(192,175,134)" vector-effect="non-scaling-stroke" stroke-width="8.962" stroke="rgb(192,175,134)"
                    stroke-linejoin="miter" stroke-linecap="butt" stroke-miterlimit="3" />
                <path d=" M 1409.561 665.335 C 1409.561 664.752 1410.034 664.278 1410.617 664.278 C 1411.2 664.278 1411.674 664.752 1411.674 665.335 C 1411.674 665.917 1411.2 666.391 1410.617 666.391 C 1410.034 666.391 1409.561 665.917 1409.561 665.335 Z "
                    fill="rgb(192,175,134)" vector-effect="non-scaling-stroke" stroke-width="4.481" stroke="rgb(192,175,134)"
                    stroke-linejoin="miter" stroke-linecap="butt" stroke-miterlimit="3" />
            </g>
            <g id="Group">
                <path d=" M 1468.708 664.278 C 1468.708 663.112 1469.655 662.166 1470.821 662.166 C 1471.986 662.166 1472.933 663.112 1472.933 664.278 C 1472.933 665.444 1471.986 666.391 1470.821 666.391 C 1469.655 666.391 1468.708 665.444 1468.708 664.278 Z "
                    fill="rgb(192,175,134)" vector-effect="non-scaling-stroke" stroke-width="8.962" stroke="rgb(192,175,134)"
                    stroke-linejoin="miter" stroke-linecap="butt" stroke-miterlimit="3" />
                <path d=" M 1481.383 665.335 C 1481.383 664.752 1481.856 664.278 1482.439 664.278 C 1483.022 664.278 1483.495 664.752 1483.495 665.335 C 1483.495 665.917 1483.022 666.391 1482.439 666.391 C 1481.856 666.391 1481.383 665.917 1481.383 665.335 Z "
                    fill="rgb(192,175,134)" vector-effect="non-scaling-stroke" stroke-width="4.481" stroke="rgb(192,175,134)"
                    stroke-linejoin="miter" stroke-linecap="butt" stroke-miterlimit="3" />
            </g>
            <path d=" M 1444.507 649.042 L 1444.712 649.042 C 1445.598 657.124 1452.12 663.523 1460.259 664.216 L 1460.259 664.341 C 1452.12 665.034 1445.598 671.432 1444.712 679.515 L 1444.507 679.515 C 1443.685 672.012 1438.006 665.961 1430.685 664.577 L 1430.685 663.98 C 1438.006 662.596 1443.685 656.545 1444.507 649.042 Z "
                fill="rgb(192,175,134)" />
        </g>
        <g transform="matrix(2.112,0,0,2.112,987,649.042)">
            <text transform="matrix(1,0,0,1,101.43,58.523)" style="font-family:&quot;Open Sans&quot;;font-weight:600;font-size:16px;font-style:normal;fill:#ffffff;stroke:none;">The World Cup will Take place</text>
            <text transform="matrix(1,0,0,1,111.691,80.313)" style="font-family:&quot;Open Sans&quot;;font-weight:600;font-size:16px;font-style:normal;fill:#ffffff;stroke:none;">in 11 major cities of Russia.</text>
            <text transform="matrix(1,0,0,1,117.625,102.102)" style="font-family:&quot;Open Sans&quot;;font-weight:600;font-size:16px;font-style:normal;fill:#ffffff;stroke:none;">Each city has a World Cup</text>
            <text transform="matrix(1,0,0,1,149.793,123.891)" style="font-family:&quot;Open Sans&quot;;font-weight:600;font-size:16px;font-style:normal;fill:#ffffff;stroke:none;">volunteer centre.</text>
        </g>
        <g transform="matrix(2.112,0,0,2.112,1097.455,325.239)">
            <text transform="matrix(1,0,0,1,65.132,90.838)" style="font-family:&quot;Dusha V5&quot;;font-weight:400;font-size:36px;font-style:normal;fill:#ffffff;stroke:none;">VOLUNTEER</text>
            <text transform="matrix(1,0,0,1,88.247,129.633)" style="font-family:&quot;Dusha V5&quot;;font-weight:400;font-size:36px;font-style:normal;fill:#ffffff;stroke:none;">CENTRES</text>
        </g>
    </g>
</svg>