<?xml version="1.0" standalone="no"?><!-- Generator: Gravit.io --><svg xmlns="http://www.w3.org/2000/svg" xmlns:xlink="http://www.w3.org/1999/xlink" style="isolation:isolate" viewBox="989.711 103.008 889.455 1173.336" width="889.455" height="1173.336"><g id="TONGUE gold seperator"><g id="Tongue-Star Outline Certified"><linearGradient id="_lgradient_2" x1="49.875812819519375%" y1="-1.160326389818389%" x2="50.21650509751772%" y2="100.98305020623445%"><stop offset="0.8695652173913043%" stop-opacity="1" style="stop-color:rgb(248,245,199)"/><stop offset="100%" stop-opacity="1" style="stop-color:rgb(181,154,112)"/></linearGradient><path d=" M 1433.878 1276.344 C 1487.879 1212.121 1530.303 1174.242 1586 1152 C 1780.144 1074.469 1854.091 996.546 1868 909.721 C 1934.792 492.783 1690.727 102.987 1434 103.008 C 1177.273 103.03 948.515 464.697 996 898 C 1005.903 988.362 1079.58 1069.078 1281 1152 C 1351 1180.818 1393.939 1224.242 1433.878 1276.344 Z " fill="url(#_lgradient_2)"/><linearGradient id="_lgradient_3" x1="49.52345391553944%" y1="-2.848450591005268%" x2="49.894271494646894%" y2="104.64671100228901%"><stop offset="0%" stop-opacity="1" style="stop-color:rgb(190,32,37)"/><stop offset="97.3913043478261%" stop-opacity="1" style="stop-color:rgb(109,14,18)"/></linearGradient><path d=" M 1433.878 1229.063 C 1470 1181 1523.513 1143.021 1581.746 1114.656 C 1657 1078 1694.855 1070.39 1771 1010 C 1800 987 1844 922 1850 864 C 1855.36 812.188 1859.993 761.252 1857 712.08 C 1828 389 1656.061 118.182 1434 121.033 C 1211.939 123.885 1046.97 378.788 1011.151 721.34 C 1008.417 764.574 1012.584 807.846 1018.261 850.275 C 1025.788 906.536 1038.852 951.032 1085.323 997.675 C 1127.838 1040.347 1197.311 1072.329 1281.786 1109.431 C 1340 1135 1402 1184 1433.878 1229.063 Z " fill="url(#_lgradient_3)"/><path d=" M 1444.918 1127.385 Q 1436.737 1119.088 1434.83 1097 Q 1432.74 1119.11 1424.503 1127.385 Q 1416.225 1135.701 1394 1137.83 Q 1416.189 1139.582 1424.503 1147.8 Q 1432.818 1156.017 1434.83 1178.184 Q 1436.66 1156.04 1444.918 1147.8 Q 1453.261 1139.475 1475.659 1137.83 Q 1453.224 1135.807 1444.918 1127.385 Z " fill="rgb(192,175,134)"/></g><g id="Fancy Separator Small 300"><path d=" M 1461.293 687.891 C 1461.293 685.349 1463.357 683.285 1465.899 683.285 C 1468.442 683.285 1470.506 685.349 1470.506 687.891 C 1470.506 690.433 1468.442 692.497 1465.899 692.497 C 1463.357 692.497 1461.293 690.433 1461.293 687.891 Z " fill="rgb(192,175,134)"/><path d=" M 1475.908 687.891 C 1475.908 686.736 1476.846 685.797 1478.002 685.797 C 1479.157 685.797 1480.096 686.736 1480.096 687.891 C 1480.096 689.047 1479.157 689.985 1478.002 689.985 C 1476.846 689.985 1475.908 689.047 1475.908 687.891 Z " fill="rgb(192,175,134)"/><path d=" M 1440.915 682.889 Q 1436.929 678.824 1436 668 Q 1434.982 678.834 1430.969 682.889 Q 1426.936 686.964 1416.109 688.008 Q 1426.919 688.866 1430.969 692.893 Q 1435.02 696.92 1436 707.782 Q 1436.891 696.931 1440.915 692.893 Q 1444.979 688.814 1455.891 688.008 Q 1444.961 687.016 1440.915 682.889 Z " fill="rgb(192,175,134)"/><path d="M 1487.463 686.007 L 1584.034 686.007 C 1585.119 686.007 1586 686.851 1586 687.891 L 1586 687.891 C 1586 688.931 1585.119 689.776 1584.034 689.776 L 1487.463 689.776 C 1486.378 689.776 1485.498 688.931 1485.498 687.891 L 1485.498 687.891 C 1485.498 686.851 1486.378 686.007 1487.463 686.007 Z" style="stroke:none;fill:#C0AF86;stroke-miterlimit:10;"/><path d=" M 1410.707 687.891 C 1410.707 685.349 1408.643 683.285 1406.101 683.285 C 1403.558 683.285 1401.494 685.349 1401.494 687.891 C 1401.494 690.433 1403.558 692.497 1406.101 692.497 C 1408.643 692.497 1410.707 690.433 1410.707 687.891 Z " fill="rgb(192,175,134)"/><path d=" M 1396.092 687.891 C 1396.092 686.736 1395.154 685.797 1393.998 685.797 C 1392.843 685.797 1391.904 686.736 1391.904 687.891 C 1391.904 689.047 1392.843 689.985 1393.998 689.985 C 1395.154 689.985 1396.092 689.047 1396.092 687.891 Z " fill="rgb(192,175,134)"/><path d="M 1384.537 686.007 L 1287.966 686.007 C 1286.881 686.007 1286 686.851 1286 687.891 L 1286 687.891 C 1286 688.931 1286.881 689.776 1287.966 689.776 L 1384.537 689.776 C 1385.622 689.776 1386.502 688.931 1386.502 687.891 L 1386.502 687.891 C 1386.502 686.851 1385.622 686.007 1384.537 686.007 Z" style="stroke:none;fill:#C0AF86;stroke-miterlimit:10;"/></g><g transform="matrix(1,0,0,1,1178.5,407.001)"><text transform="matrix(1,0,0,1,53.271,122.198)" style="font-family:&quot;Dusha V5&quot;;font-weight:400;font-size:74px;font-style:normal;fill:#ffffff;stroke:none;">VOLUNTEER</text><text transform="matrix(1,0,0,1,100.786,201.943)" style="font-family:&quot;Dusha V5&quot;;font-weight:400;font-size:74px;font-style:normal;fill:#ffffff;stroke:none;">CENTRES</text></g><g transform="matrix(1,0,0,1,1128,689)"><text transform="matrix(1,0,0,1,71.515,118.68)" style="font-family:&quot;Dusha V5&quot;;font-weight:400;font-size:38px;font-style:normal;fill:#ffffff;stroke:none;">THe World Cup will take place</text><text transform="matrix(1,0,0,1,99.57,159.63)" style="font-family:&quot;Dusha V5&quot;;font-weight:400;font-size:38px;font-style:normal;fill:#ffffff;stroke:none;">in 11 major cities of Russia.</text><text transform="matrix(1,0,0,1,99.867,200.58)" style="font-family:&quot;Dusha V5&quot;;font-weight:400;font-size:38px;font-style:normal;fill:#ffffff;stroke:none;">Each city has a World Cup</text><text transform="matrix(1,0,0,1,170.328,241.53)" style="font-family:&quot;Dusha V5&quot;;font-weight:400;font-size:38px;font-style:normal;fill:#ffffff;stroke:none;">volunteer centre.</text></g></g></svg>