<?xml version="1.0" standalone="no"?><!-- Generator: Gravit.io --><svg xmlns="http://www.w3.org/2000/svg" xmlns:xlink="http://www.w3.org/1999/xlink" style="isolation:isolate" viewBox="254 205.5 103 103" width="103" height="103"><g id="Facebook"><path d="M 265 207 L 346 207 C 351.2 207 355.5 211.3 355.5 216.5 L 355.5 297.5 C 355.5 302.7 351.2 307 346 307 L 265 307 C 259.8 307 255.5 302.7 255.5 297.5 L 255.5 216.5 C 255.5 211.3 259.8 207 265 207 Z" style="stroke:none;fill:#DCD5CA;stroke-miterlimit:10;"/><path d="M 265 207 L 346 207 C 351.2 207 355.5 211.3 355.5 216.5 L 355.5 297.5 C 355.5 302.7 351.2 307 346 307 L 265 307 C 259.8 307 255.5 302.7 255.5 297.5 L 255.5 216.5 C 255.5 211.3 259.8 207 265 207 Z" style="fill:none;stroke:#BDA47A;stroke-width:1;stroke-linecap:square;stroke-miterlimit:3;"/><path d=" M 345.7 241.5 L 337.8 241.5 C 332.7 241.5 332.2 243.2 332.2 247.2 L 332.2 254.5 L 344 254.5 L 343.4 267.5 L 332.7 267.5 L 332.7 307 L 314.7 307 L 314.7 267.5 L 307.9 267.5 L 307.9 254 L 314.7 254 L 314.7 245.5 C 314.7 234.2 319.2 228 332.2 228 L 345.7 228 L 345.7 241.5 Z " fill="rgb(0,107,155)"/></g></svg>