<?xml version="1.0" standalone="no"?><!-- Generator: Gravit.io --><svg xmlns="http://www.w3.org/2000/svg" xmlns:xlink="http://www.w3.org/1999/xlink" style="isolation:isolate" viewBox="47.5 205.5 103 103" width="103" height="103"><g id="Google Plus"><path d="M 58.5 207 L 139.5 207 C 144.7 207 149 211.3 149 216.5 L 149 297.5 C 149 302.7 144.7 307 139.5 307 L 58.5 307 C 53.3 307 49 302.7 49 297.5 L 49 216.5 C 49 211.3 53.3 207 58.5 207 Z" style="stroke:none;fill:#DCD5CA;stroke-miterlimit:10;"/><path d="M 58.5 207 L 139.5 207 C 144.7 207 149 211.3 149 216.5 L 149 297.5 C 149 302.7 144.7 307 139.5 307 L 58.5 307 C 53.3 307 49 302.7 49 297.5 L 49 216.5 C 49 211.3 53.3 207 58.5 207 Z" style="fill:none;stroke:#BDA47A;stroke-width:1;stroke-linecap:square;stroke-miterlimit:3;"/><g id="Google Plus Icon"><path d=" M 96.1 261.4 L 93 259 C 92.1 258.3 90.8 257.3 90.8 255.4 C 90.8 253.6 92.1 252.4 93.2 251.3 C 96.8 248.5 100.4 245.4 100.4 239.1 C 100.4 232.7 96.3 229.5 94.3 227.6 L 99.6 227.6 L 105.1 224.8 L 87.4 224.8 C 82.8 224.8 76.9 225.5 72 229.5 C 68.3 232.6 66.5 236.9 66.5 240.8 C 66.5 247.4 71.6 254.1 80.8 254.1 C 81.6 254.1 82.6 254 83.5 253.9 C 83.1 254.9 82.7 255.8 82.7 257.2 C 82.7 259.8 84.1 261.4 85.3 262.9 C 81.4 263.2 74.1 263.6 68.8 266.8 C 63.7 269.8 62.2 274.1 62.2 277.1 C 62.2 283.4 68.2 289.2 80.7 289.2 C 95.5 289.2 103.3 281.2 103.3 273.3 C 103.3 267.4 99.9 264.6 96.1 261.4 Z  M 84.8 251.7 C 77.4 251.7 74 242.3 74 236.7 C 74 234.5 74.5 232.2 75.9 230.4 C 77.3 228.7 79.8 227.6 82 227.6 C 89.1 227.6 92.8 237.1 92.8 243.2 C 92.8 244.7 92.7 247.4 90.7 249.3 C 89.1 250.8 87 251.7 84.8 251.7 Z  M 84.9 285.7 C 75.7 285.7 69.8 281.4 69.8 275.4 C 69.8 269.4 75.3 267.3 77.2 266.7 C 80.8 265.5 85.4 265.3 86.2 265.3 C 87.1 265.3 87.5 265.3 88.2 265.4 C 94.7 270 97.6 272.2 97.6 276.5 C 97.6 281.8 93.2 285.7 84.9 285.7 Z  M 120.5 243.2 L 126.6 243.2 L 126.6 267.7 L 120.5 267.7 L 120.5 243.2 Z " fill="rgb(0,107,155)"/><path d=" M 111.3 252.4 L 135.8 252.4 L 135.8 258.5 L 111.3 258.5 L 111.3 252.4 Z " fill="rgb(0,107,155)"/></g></g></svg>