<!-- <svg xmlns="http://www.w3.org/2000/svg" xmlns:xlink="http://www.w3.org/1999/xlink" style="isolation:isolate" viewBox="-1 -1 102 102"
    width="100" height="100"> -->
<svg xmlns="http://www.w3.org/2000/svg" xmlns:xlink="http://www.w3.org/1999/xlink">
    <defs>
        <g id="GooglePlus">
            <path d="M 9.5 0 L 90.5 0 C 95.7 0 100 4.3 100 9.5 L 100 90.5 C 100 95.7 95.7 100 90.5 100 L 9.5 100 C 4.3 100 0 95.7 0 90.5 L 0 9.5 C 0 4.3 4.3 0 9.5 0 Z"
                style="stroke:none;fill:#DCD5CA;stroke-miterlimit:10;" />
            <path d="M 9.5 0 L 90.5 0 C 95.7 0 100 4.3 100 9.5 L 100 90.5 C 100 95.7 95.7 100 90.5 100 L 9.5 100 C 4.3 100 0 95.7 0 90.5 L 0 9.5 C 0 4.3 4.3 0 9.5 0 Z"
                style="fill:none;stroke:#BDA47A;stroke-width:1;stroke-linecap:square;stroke-miterlimit:3;" />
            <g id="Google Plus Icon">
                <path d=" M 47.1 54.4 L 44 52 C 43.1 51.3 41.8 50.3 41.8 48.4 C 41.8 46.6 43.1 45.4 44.2 44.3 C 47.8 41.5 51.4 38.4 51.4 32.1 C 51.4 25.7 47.3 22.5 45.3 20.6 L 50.6 20.6 L 56.1 17.8 L 38.4 17.8 C 33.8 17.8 27.9 18.5 23 22.5 C 19.3 25.6 17.5 29.9 17.5 33.8 C 17.5 40.4 22.6 47.1 31.8 47.1 C 32.6 47.1 33.6 47 34.5 46.9 C 34.1 47.9 33.7 48.8 33.7 50.2 C 33.7 52.8 35.1 54.4 36.3 55.9 C 32.4 56.2 25.1 56.6 19.8 59.8 C 14.7 62.8 13.2 67.1 13.2 70.1 C 13.2 76.4 19.2 82.2 31.7 82.2 C 46.5 82.2 54.3 74.2 54.3 66.3 C 54.3 60.4 50.9 57.6 47.1 54.4 Z  M 35.8 44.7 C 28.4 44.7 25 35.3 25 29.7 C 25 27.5 25.5 25.2 26.9 23.4 C 28.3 21.7 30.8 20.6 33 20.6 C 40.1 20.6 43.8 30.1 43.8 36.2 C 43.8 37.7 43.7 40.4 41.7 42.3 C 40.1 43.8 38 44.7 35.8 44.7 Z  M 35.9 78.7 C 26.7 78.7 20.8 74.4 20.8 68.4 C 20.8 62.4 26.3 60.3 28.2 59.7 C 31.8 58.5 36.4 58.3 37.2 58.3 C 38.1 58.3 38.5 58.3 39.2 58.4 C 45.7 63 48.6 65.2 48.6 69.5 C 48.6 74.8 44.2 78.7 35.9 78.7 Z  M 71.5 36.2 L 77.6 36.2 L 77.6 60.7 L 71.5 60.7 L 71.5 36.2 Z "
                    fill="rgb(0,107,155)" />
                <path d=" M 62.3 45.4 L 86.8 45.4 L 86.8 51.5 L 62.3 51.5 L 62.3 45.4 Z " fill="rgb(0,107,155)" />
            </g>
        </g>
        <g id="Tumblr">
            <path d="M 9.5 0 L 90.5 0 C 95.7 0 100 4.3 100 9.5 L 100 90.5 C 100 95.7 95.7 100 90.5 100 L 9.5 100 C 4.3 100 0 95.7 0 90.5 L 0 9.5 C 0 4.3 4.3 0 9.5 0 Z"
                style="stroke:none;fill:#DCD5CA;stroke-linecap:square;stroke-miterlimit:3;" />
            <path d="M 9.5 0 L 90.5 0 C 95.7 0 100 4.3 100 9.5 L 100 90.5 C 100 95.7 95.7 100 90.5 100 L 9.5 100 C 4.3 100 0 95.7 0 90.5 L 0 9.5 C 0 4.3 4.3 0 9.5 0 Z"
                style="fill:none;stroke:#BDA47A;stroke-width:1;stroke-linecap:square;stroke-miterlimit:3;" />
            <path d=" M 75.5 84.6 C 75.5 84.9 75.4 85.2 75.2 85.4 C 74.9 85.7 68.3 91.3 53 91.3 C 34.7 91.3 34.2 71 34.2 68.6 L 34.2 42.9 L 25.5 42.9 C 25.2 42.9 25 42.8 24.8 42.6 C 24.6 42.4 24.5 42.2 24.5 41.9 L 24.5 32.7 C 24.5 32.3 24.7 31.9 25.1 31.8 C 25.3 31.7 41.6 25.1 41.6 9.7 C 41.6 9.1 42.1 8.7 42.7 8.7 L 53 8.7 C 53.6 8.7 54.1 9.1 54.1 9.7 L 54.1 29.1 L 71 29.1 C 71.6 29.1 72 29.6 72 30.2 L 72 42.7 C 72 43.3 71.6 43.7 71 43.7 L 54.1 43.7 L 54.1 68.2 C 54.1 68.6 54.2 76.2 62 76.2 C 68.5 76.2 73.9 72.9 73.9 72.8 C 74.3 72.6 74.7 72.6 75 72.8 C 75.3 73 75.5 73.3 75.5 73.7 L 75.5 84.6 L 75.5 84.6 Z "
                fill="rgb(0,107,155)" />
        </g>
        <g id="VK">
            <path d="M 9.5 0 L 90.5 0 C 95.7 0 100 4.3 100 9.5 L 100 90.5 C 100 95.7 95.7 100 90.5 100 L 9.5 100 C 4.3 100 0 95.7 0 90.5 L 0 9.5 C 0 4.3 4.3 0 9.5 0 Z"
                style="stroke:none;fill:#DCD5CA;stroke-linecap:square;stroke-miterlimit:3;" />
            <path d="M 9.5 0 L 90.5 0 C 95.7 0 100 4.3 100 9.5 L 100 90.5 C 100 95.7 95.7 100 90.5 100 L 9.5 100 C 4.3 100 0 95.7 0 90.5 L 0 9.5 C 0 4.3 4.3 0 9.5 0 Z"
                style="fill:none;stroke:#BDA47A;stroke-width:1;stroke-linecap:square;stroke-miterlimit:3;" />
            <path d=" M 49.1 72.6 L 53.9 72.6 C 53.9 72.6 55.4 72.5 56.1 71.7 C 56.8 70.9 56.8 69.6 56.8 69.6 C 56.8 69.6 56.7 63.2 59.6 62.2 C 62.6 61.3 66.3 68.4 70.3 71.2 C 73.4 73.2 75.7 72.8 75.7 72.8 L 86.3 72.6 C 86.3 72.6 91.9 72.3 89.3 67.9 C 89.1 67.5 87.7 64.6 81.3 58.7 C 74.6 52.5 75.5 53.5 83.6 42.7 C 88.5 36.2 90.5 32.2 89.9 30.5 C 89.3 28.8 85.7 29.3 85.7 29.3 L 73.6 29.3 C 73.6 29.3 72.8 29.2 72.1 29.6 C 71.4 30 71 30.9 71 30.9 C 71 30.9 69.1 36 66.6 40.3 C 61.2 49.4 59.1 49.9 58.2 49.3 C 56.2 48 56.7 44 56.7 41.2 C 56.7 32.4 58 28.7 54.1 27.8 C 52.8 27.4 51.8 27.2 48.5 27.2 C 44.2 27.2 40.5 27.2 38.5 28.2 C 37.1 28.9 36.1 30.4 36.7 30.5 C 37.5 30.6 39.3 31 40.3 32.2 C 41.5 33.9 41.4 37.7 41.4 37.7 C 41.4 37.7 42.2 48.1 39.8 49.4 C 38.2 50.2 35.9 48.4 31.2 40.2 C 28.7 36 26.9 31.3 26.9 31.3 C 26.9 31.3 26.5 30.4 25.9 29.9 C 25.1 29.4 24 29.2 24 29.2 L 12.6 29.3 C 12.6 29.3 10.9 29.3 10.3 30.1 C 9.7 30.7 10.2 32.1 10.2 32.1 C 10.2 32.1 19.2 53 29.3 63.6 C 38.6 73.3 49.1 72.6 49.1 72.6 Z "
                fill-rule="evenodd" fill="rgb(0,107,155)" />
        </g>
        <g id="Twitter">
            <path d="M 9.5 0 L 90.5 0 C 95.7 0 100 4.3 100 9.5 L 100 90.5 C 100 95.7 95.7 100 90.5 100 L 9.5 100 C 4.3 100 0 95.7 0 90.5 L 0 9.5 C 0 4.3 4.3 0 9.5 0 Z"
                style="stroke:none;fill:#DCD5CA;stroke-linecap:square;stroke-miterlimit:3;" />
            <path d="M 9.5 0 L 90.5 0 C 95.7 0 100 4.3 100 9.5 L 100 90.5 C 100 95.7 95.7 100 90.5 100 L 9.5 100 C 4.3 100 0 95.7 0 90.5 L 0 9.5 C 0 4.3 4.3 0 9.5 0 Z"
                style="fill:none;stroke:#BDA47A;stroke-width:1;stroke-linecap:square;stroke-miterlimit:3;" />
            <path d=" M 92 24 C 88.9 25.4 85.5 26.3 82.1 26.7 C 85.7 24.5 88.4 21.1 89.7 17.1 C 86.3 19.1 82.6 20.6 78.7 21.3 C 73.4 15.6 64.9 14.2 58 17.9 C 51.1 21.6 47.6 29.4 49.4 37 C 35.5 36.3 22.6 29.8 13.8 19 C 12.3 21.7 11.5 24.7 11.5 27.7 C 11.5 33.7 14.6 38.9 19.2 42 C 16.4 42 13.8 41.2 11.4 39.9 L 11.4 40.1 C 11.4 48.3 17.2 55.4 25.2 57 C 22.7 57.7 20 57.8 17.4 57.3 C 19.7 64.3 26.1 69.1 33.5 69.3 C 27.4 74.1 19.9 76.7 12.1 76.6 C 10.7 76.6 9.4 76.6 8 76.4 C 15.9 81.5 25.1 84.2 34.4 84.1 C 66.1 84.1 83.4 57.9 83.4 35.1 C 83.4 34.4 83.4 33.6 83.4 32.9 C 86.8 30.4 89.7 27.4 92 24 Z "
                fill="rgb(0,107,155)" />
        </g>
        <g id="Facebook">
            <path d="M 9.5 0 L 90.5 0 C 95.7 0 100 4.3 100 9.5 L 100 90.5 C 100 95.7 95.7 100 90.5 100 L 9.5 100 C 4.3 100 0 95.7 0 90.5 L 0 9.5 C 0 4.3 4.3 0 9.5 0 Z"
                style="stroke:none;fill:#DCD5CA;stroke-linecap:square;stroke-miterlimit:3;" />
            <path d="M 9.5 0 L 90.5 0 C 95.7 0 100 4.3 100 9.5 L 100 90.5 C 100 95.7 95.7 100 90.5 100 L 9.5 100 C 4.3 100 0 95.7 0 90.5 L 0 9.5 C 0 4.3 4.3 0 9.5 0 Z"
                style="fill:none;stroke:#BDA47A;stroke-width:1;stroke-linecap:square;stroke-miterlimit:3;" />
            <path d=" M 90.2 34.5 L 82.3 34.5 C 77.2 34.5 76.7 36.2 76.7 40.2 L 76.7 47.5 L 88.5 47.5 L 87.9 60.5 L 77.2 60.5 L 77.2 100 L 59.2 100 L 59.2 60.5 L 52.4 60.5 L 52.4 47 L 59.2 47 L 59.2 38.5 C 59.2 27.2 63.7 21 76.7 21 L 90.2 21 L 90.2 34.5 Z "
                fill="rgb(0,107,155)" />
        </g>
    </defs>>
</svg>