<?xml version="1.0" standalone="no"?><!-- Generator: Gravit.io --><svg xmlns="http://www.w3.org/2000/svg" xmlns:xlink="http://www.w3.org/1999/xlink" style="isolation:isolate" viewBox="460.5 205.5 103 103" width="103" height="103"><g id="Tumblr"><path d="M 471.5 207 L 552.5 207 C 557.7 207 562 211.3 562 216.5 L 562 297.5 C 562 302.7 557.7 307 552.5 307 L 471.5 307 C 466.3 307 462 302.7 462 297.5 L 462 216.5 C 462 211.3 466.3 207 471.5 207 Z" style="stroke:none;fill:#DCD5CA;stroke-miterlimit:10;"/><path d="M 471.5 207 L 552.5 207 C 557.7 207 562 211.3 562 216.5 L 562 297.5 C 562 302.7 557.7 307 552.5 307 L 471.5 307 C 466.3 307 462 302.7 462 297.5 L 462 216.5 C 462 211.3 466.3 207 471.5 207 Z" style="fill:none;stroke:#BDA47A;stroke-width:1;stroke-linecap:square;stroke-miterlimit:3;"/><path d=" M 537.5 291.6 C 537.5 291.9 537.4 292.2 537.2 292.4 C 536.9 292.7 530.3 298.3 515 298.3 C 496.7 298.3 496.2 278 496.2 275.6 L 496.2 249.9 L 487.5 249.9 C 487.2 249.9 487 249.8 486.8 249.6 C 486.6 249.4 486.5 249.2 486.5 248.9 L 486.5 239.7 C 486.5 239.3 486.7 238.9 487.1 238.8 C 487.3 238.7 503.6 232.1 503.6 216.7 C 503.6 216.1 504.1 215.7 504.7 215.7 L 515 215.7 C 515.6 215.7 516.1 216.1 516.1 216.7 L 516.1 236.1 L 533 236.1 C 533.6 236.1 534 236.6 534 237.2 L 534 249.7 C 534 250.3 533.6 250.7 533 250.7 L 516.1 250.7 L 516.1 275.2 C 516.1 275.6 516.2 283.2 524 283.2 C 530.5 283.2 535.9 279.9 535.9 279.8 C 536.3 279.6 536.7 279.6 537 279.8 C 537.3 280 537.5 280.3 537.5 280.7 L 537.5 291.6 L 537.5 291.6 Z " fill="rgb(0,107,155)"/></g></svg>