<?xml version="1.0" standalone="no"?><!-- Generator: Gravit.io --><svg xmlns="http://www.w3.org/2000/svg" xmlns:xlink="http://www.w3.org/1999/xlink" style="isolation:isolate" viewBox="667 205.5 103 103" width="103" height="103"><g id="Twitter"><path d="M 678 207 L 759 207 C 764.2 207 768.5 211.3 768.5 216.5 L 768.5 297.5 C 768.5 302.7 764.2 307 759 307 L 678 307 C 672.8 307 668.5 302.7 668.5 297.5 L 668.5 216.5 C 668.5 211.3 672.8 207 678 207 Z" style="stroke:none;fill:#DCD5CA;stroke-miterlimit:10;"/><path d="M 678 207 L 759 207 C 764.2 207 768.5 211.3 768.5 216.5 L 768.5 297.5 C 768.5 302.7 764.2 307 759 307 L 678 307 C 672.8 307 668.5 302.7 668.5 297.5 L 668.5 216.5 C 668.5 211.3 672.8 207 678 207 Z" style="fill:none;stroke:#BDA47A;stroke-width:1;stroke-linecap:square;stroke-miterlimit:3;"/><path d=" M 760.5 231 C 757.4 232.4 754 233.3 750.6 233.7 C 754.2 231.5 756.9 228.1 758.2 224.1 C 754.8 226.1 751.1 227.6 747.2 228.3 C 741.9 222.6 733.4 221.2 726.5 224.9 C 719.6 228.6 716.1 236.4 717.9 244 C 704 243.3 691.1 236.8 682.3 226 C 680.8 228.7 680 231.7 680 234.7 C 680 240.7 683.1 245.9 687.7 249 C 684.9 249 682.3 248.2 679.9 246.9 L 679.9 247.1 C 679.9 255.3 685.7 262.4 693.7 264 C 691.2 264.7 688.5 264.8 685.9 264.3 C 688.2 271.3 694.6 276.1 702 276.3 C 695.9 281.1 688.4 283.7 680.6 283.6 C 679.2 283.6 677.9 283.6 676.5 283.4 C 684.4 288.5 693.6 291.2 702.9 291.1 C 734.6 291.1 751.9 264.9 751.9 242.1 C 751.9 241.4 751.9 240.6 751.9 239.9 C 755.3 237.4 758.2 234.4 760.5 231 Z " fill="rgb(0,107,155)"/></g></svg>