<?xml version="1.0" standalone="no"?><!-- Generator: Gravit.io --><svg xmlns="http://www.w3.org/2000/svg" xmlns:xlink="http://www.w3.org/1999/xlink" style="isolation:isolate" viewBox="884.5 205.5 103 103" width="103" height="103"><g id="VK"><path d="M 895.5 207 L 976.5 207 C 981.7 207 986 211.3 986 216.5 L 986 297.5 C 986 302.7 981.7 307 976.5 307 L 895.5 307 C 890.3 307 886 302.7 886 297.5 L 886 216.5 C 886 211.3 890.3 207 895.5 207 Z" style="stroke:none;fill:#DCD5CA;stroke-miterlimit:10;"/><path d="M 895.5 207 L 976.5 207 C 981.7 207 986 211.3 986 216.5 L 986 297.5 C 986 302.7 981.7 307 976.5 307 L 895.5 307 C 890.3 307 886 302.7 886 297.5 L 886 216.5 C 886 211.3 890.3 207 895.5 207 Z" style="fill:none;stroke:#BDA47A;stroke-width:1;stroke-linecap:square;stroke-miterlimit:3;"/><path d=" M 935.1 279.6 L 939.9 279.6 C 939.9 279.6 941.4 279.5 942.1 278.7 C 942.8 277.9 942.8 276.6 942.8 276.6 C 942.8 276.6 942.7 270.2 945.6 269.2 C 948.6 268.3 952.3 275.4 956.3 278.2 C 959.4 280.2 961.7 279.8 961.7 279.8 L 972.3 279.6 C 972.3 279.6 977.9 279.3 975.3 274.9 C 975.1 274.5 973.7 271.6 967.3 265.7 C 960.6 259.5 961.5 260.5 969.6 249.7 C 974.5 243.2 976.5 239.2 975.9 237.5 C 975.3 235.8 971.7 236.3 971.7 236.3 L 959.6 236.3 C 959.6 236.3 958.8 236.2 958.1 236.6 C 957.4 237 957 237.9 957 237.9 C 957 237.9 955.1 243 952.6 247.3 C 947.2 256.4 945.1 256.9 944.2 256.3 C 942.2 255 942.7 251 942.7 248.2 C 942.7 239.4 944 235.7 940.1 234.8 C 938.8 234.4 937.8 234.2 934.5 234.2 C 930.2 234.2 926.5 234.2 924.5 235.2 C 923.1 235.9 922.1 237.4 922.7 237.5 C 923.5 237.6 925.3 238 926.3 239.2 C 927.5 240.9 927.4 244.7 927.4 244.7 C 927.4 244.7 928.2 255.1 925.8 256.4 C 924.2 257.2 921.9 255.4 917.2 247.2 C 914.7 243 912.9 238.3 912.9 238.3 C 912.9 238.3 912.5 237.4 911.9 236.9 C 911.1 236.4 910 236.2 910 236.2 L 898.6 236.3 C 898.6 236.3 896.9 236.3 896.3 237.1 C 895.7 237.7 896.2 239.1 896.2 239.1 C 896.2 239.1 905.2 260 915.3 270.6 C 924.6 280.3 935.1 279.6 935.1 279.6 Z " fill-rule="evenodd" fill="rgb(0,107,155)"/></g></svg>